<svg width="32" height="43" viewBox="0 0 32 43" fill="none" xmlns="http://www.w3.org/2000/svg">
<mask id="path-1-inside-1" fill="white">
<path d="M26.6753 16.7192L27.8913 12.2199C28.7169 9.1659 28.0939 5.93643 26.2249 3.58153C24.356 1.22595 21.6316 0.236578 18.9376 0.934856L6.43314 4.17597C3.73868 4.87436 1.63712 7.11428 0.812285 10.1678C-0.0131898 13.2214 0.609858 16.4512 2.47881 18.8068L5.23206 22.2769C5.78012 22.9682 5.94664 23.9492 5.66731 24.8374C4.81082 27.5611 4.64784 30.5018 5.19574 33.3421C5.94972 37.2506 7.81125 39.9071 10.7289 41.238C13.2303 42.3792 16.5058 42.4761 20.2011 41.5183C24.1037 40.5068 27.1329 38.6723 28.9605 36.2128C29.145 35.9645 29.121 35.5901 28.9069 35.3764C28.6928 35.1625 28.3696 35.1905 28.1851 35.4386C26.5023 37.7033 23.6643 39.4053 19.9778 40.3608C16.4827 41.2667 13.4141 41.1885 11.1037 40.1342C8.52144 38.9561 6.86959 36.5838 6.19431 33.0833C5.68919 30.4648 5.83939 27.7536 6.62854 25.2437C7.03978 23.9377 6.79324 22.4935 5.9853 21.474L3.5782 18.4404L5.83797 16.0313L7.31472 17.8927C8.32991 19.1727 9.97807 19.3901 11.2334 18.4089C12.4818 17.4336 13.8659 16.7442 15.3478 16.3601C16.8302 15.9759 18.336 15.9162 19.824 16.1822C20.2172 16.2526 20.6045 16.2349 20.9701 16.1401C21.9954 15.8743 22.8491 15.0038 23.1797 13.7805L23.8319 11.3673L26.7616 12.4313L25.6987 16.3643C25.3416 17.6842 25.6489 19.1127 26.5009 20.0927C28.138 21.9737 29.2699 24.352 29.7752 26.9712C30.2548 29.4572 30.0781 31.6873 29.2502 33.5991C29.1235 33.892 29.2255 34.2485 29.4781 34.3953C29.7308 34.5424 30.0382 34.4239 30.1649 34.1314C31.1013 31.9682 31.3064 29.4721 30.774 26.7123C30.226 23.8714 28.9974 21.2911 27.2215 19.2504C26.6425 18.5845 26.433 17.6145 26.6753 16.7192ZM22.2032 13.4261C21.9073 14.5215 20.9721 15.1876 19.9802 15.0099C18.3657 14.7211 16.732 14.7859 15.1248 15.2024C13.5177 15.619 12.0161 16.3669 10.6618 17.4252C9.82922 18.0758 8.73866 17.9349 8.06837 17.0898L6.24504 14.7917C5.62851 14.0145 5.42298 12.9491 5.69517 11.9412C5.87655 11.2694 6.25477 10.6994 6.75991 10.3362C7.00016 10.1634 7.07429 9.79775 6.92524 9.51927C6.77619 9.24078 6.46083 9.15528 6.22047 9.32797C5.50655 9.84108 4.97308 10.6436 4.71859 11.5869C4.38753 12.812 4.55974 14.097 5.17246 15.1289L2.90034 17.5516C1.54303 15.5615 1.12538 12.9765 1.7888 10.5222C2.50339 7.87815 4.3232 5.93812 6.65659 5.33332L19.161 2.0922C21.4941 1.48746 23.8532 2.34455 25.472 4.38459C26.9739 6.27716 27.5459 8.82204 27.049 11.2923L24.103 10.2224C24.2777 8.98856 23.9625 7.7425 23.2158 6.79832C22.3615 5.71787 21.0463 5.25033 19.783 5.57777L8.32497 8.54767C8.04925 8.61913 7.87563 8.93601 7.93735 9.25594C7.99898 9.57544 8.27256 9.77674 8.54828 9.70527L20.0061 6.73542C20.9129 6.50039 21.8535 6.83153 22.461 7.59977C23.0757 8.37654 23.2801 9.44092 23.0083 10.4466L22.2032 13.4261Z"/>
</mask>
<path d="M26.6753 16.7192L43.7631 20.6645L43.7649 20.6578L26.6753 16.7192ZM27.8913 12.2199L10.8021 8.28004L10.8017 8.28131L27.8913 12.2199ZM26.2249 3.58153L12.2103 15.5825L12.2119 15.5846L26.2249 3.58153ZM0.812285 10.1678L17.9016 14.1075L17.9025 14.1041L0.812285 10.1678ZM2.47881 18.8068L16.4935 6.80581L16.4934 6.80576L2.47881 18.8068ZM5.23206 22.2769L19.2504 10.2807L19.2467 10.276L5.23206 22.2769ZM5.66731 24.8374L-11.1999 20.1379L-11.1999 20.138L5.66731 24.8374ZM10.7289 41.238L18.6913 24.4941L18.6908 24.4939L10.7289 41.238ZM28.9605 36.2128L15.0755 25.6745L15.0754 25.6746L28.9605 36.2128ZM28.9069 35.3764L16.1638 48.8033L16.1676 48.8071L28.9069 35.3764ZM28.1851 35.4386L14.3031 24.8963L14.2999 24.9005L28.1851 35.4386ZM11.1037 40.1342L19.0676 23.391L19.0661 23.3903L11.1037 40.1342ZM6.62854 25.2437L-10.2365 20.5373L-10.239 20.5451L6.62854 25.2437ZM5.9853 21.474L20.0056 9.48019L19.9995 9.47247L5.9853 21.474ZM3.5782 18.4404L-8.86354 6.17522L-20.1466 18.204L-10.436 30.4419L3.5782 18.4404ZM5.83797 16.0313L19.8529 4.03066L7.61594 -11.3935L-6.60377 3.7661L5.83797 16.0313ZM7.31472 17.8927L21.3316 5.89451L21.3296 5.89204L7.31472 17.8927ZM11.2334 18.4089L1.00731 4.11867L1.00354 4.12161L11.2334 18.4089ZM19.824 16.1822L23.8284 -1.79514L23.8253 -1.7957L19.824 16.1822ZM23.1797 13.7805L40.2693 17.7193L40.2694 17.7189L23.1797 13.7805ZM23.8319 11.3673L30.582 -5.87235L12.1463 -12.5677L6.74223 7.42891L23.8319 11.3673ZM26.7616 12.4313L43.8513 16.3698L48.1391 0.503933L33.5117 -4.80834L26.7616 12.4313ZM25.6987 16.3643L42.7868 20.3085L42.7884 20.3028L25.6987 16.3643ZM26.5009 20.0927L12.9638 32.6686L12.97 32.6757L26.5009 20.0927ZM29.2502 33.5991L13.0943 26.9908L13.0898 27.0014L29.2502 33.5991ZM29.4781 34.3953L38.8817 18.3972L38.8732 18.3922L29.4781 34.3953ZM30.1649 34.1314L46.3194 40.7428L46.322 40.7368L30.1649 34.1314ZM27.2215 19.2504L13.6858 31.8279L13.6898 31.8325L27.2215 19.2504ZM22.2032 13.4261L5.11329 9.4888L5.11321 9.48909L22.2032 13.4261ZM19.9802 15.0099L23.9876 -2.967L23.9823 -2.96796L19.9802 15.0099ZM10.6618 17.4252L0.434114 3.13618L0.433333 3.13679L10.6618 17.4252ZM8.06837 17.0898L22.0846 5.09087L22.0832 5.08906L8.06837 17.0898ZM6.24504 14.7917L-7.77021 26.7919L-7.76974 26.7925L6.24504 14.7917ZM5.69517 11.9412L22.7857 15.8765L22.7861 15.8747L5.69517 11.9412ZM6.75991 10.3362L16.3724 25.0864L16.3735 25.0856L6.75991 10.3362ZM6.22047 9.32797L-3.38614 -5.42647L-3.38887 -5.42451L6.22047 9.32797ZM4.71859 11.5869L21.8083 15.5249L21.8104 15.5171L4.71859 11.5869ZM5.17246 15.1289L17.6154 27.3928L27.5085 16.8439L20.473 4.9952L5.17246 15.1289ZM2.90034 17.5516L-11.8307 28.5794L0.0986771 46.0705L15.3433 29.8155L2.90034 17.5516ZM1.7888 10.5222L18.8782 14.4617L18.8784 14.4609L1.7888 10.5222ZM25.472 4.38459L11.4579 16.3862L11.4586 16.3871L25.472 4.38459ZM27.049 11.2923L20.299 28.532L40.0619 35.7092L44.4289 13.9982L27.049 11.2923ZM24.103 10.2224L6.53573 8.61103L4.52648 22.8039L17.3531 27.4621L24.103 10.2224ZM23.2158 6.79832L9.18349 18.777L9.18521 18.7792L23.2158 6.79832ZM22.461 7.59977L8.4293 19.5792L8.43284 19.5837L22.461 7.59977ZM23.0083 10.4466L5.91895 6.50693L5.91832 6.50926L23.0083 10.4466ZM43.7649 20.6578L44.9809 16.1585L10.8017 8.28131L9.58573 12.7806L43.7649 20.6578ZM44.9806 16.1598C47.3359 7.44716 45.5721 -1.70059 40.2379 -8.42151L12.2119 15.5846C10.6158 13.5734 10.0979 10.8847 10.8021 8.28004L44.9806 16.1598ZM40.2395 -8.41948C34.8137 -15.2581 25.639 -19.36 15.5281 -16.7393L22.347 18.609C17.6241 19.8332 13.8982 17.71 12.2103 15.5825L40.2395 -8.41948ZM15.5281 -16.7393L3.02368 -13.4982L9.8426 21.8501L22.347 18.609L15.5281 -16.7393ZM3.02368 -13.4982C-7.08492 -10.8781 -13.8816 -2.6395 -16.2779 6.23141L17.9025 14.1041C17.1559 16.8681 14.5623 20.6268 9.8426 21.8501L3.02368 -13.4982ZM-16.277 6.22802C-18.6324 14.9412 -16.8675 24.0878 -11.5358 30.8078L16.4934 6.80576C18.0872 8.81457 18.606 11.5016 17.9016 14.1075L-16.277 6.22802ZM-11.5358 30.8077L-8.78259 34.2779L19.2467 10.276L16.4935 6.80581L-11.5358 30.8077ZM-8.78633 34.2732C-11.8749 30.3775 -12.7591 25.096 -11.1999 20.1379L22.5345 29.5369C24.6524 22.8024 23.4351 15.5589 19.2504 10.2807L-8.78633 34.2732ZM-11.1999 20.138C-13.0441 26.0024 -13.3356 32.1192 -12.2285 37.8584L22.6199 28.8258C22.6313 28.8845 22.6657 29.1197 22.5346 29.5369L-11.1999 20.138ZM-12.2285 37.8584C-10.6582 45.9986 -6.07852 53.947 2.76687 57.9821L18.6908 24.4939C19.8989 25.045 20.9903 25.9541 21.7608 27.0536C22.1136 27.557 22.3311 28.0038 22.4588 28.3245C22.5843 28.6399 22.6198 28.8249 22.6199 28.8258L-12.2285 37.8584ZM2.76642 57.9819C9.82249 61.2011 17.3813 60.8071 23.6106 59.1925L16.7917 23.8442C16.3119 23.9685 16.2426 23.9221 16.536 23.9308C16.8347 23.9396 17.6358 24.0126 18.6913 24.4941L2.76642 57.9819ZM23.6106 59.1925C30.1708 57.4921 37.5847 53.8308 42.8457 46.7509L15.0754 25.6746C15.8874 24.5819 16.6673 24.0311 17.0025 23.8281C17.3247 23.633 17.3088 23.7101 16.7917 23.8442L23.6106 59.1925ZM42.8456 46.7511C48.9206 38.5759 47.7149 28.0036 41.6462 21.9458L16.1676 48.8071C10.527 43.1765 9.36942 33.3532 15.0755 25.6745L42.8456 46.7511ZM41.6501 21.9496C34.5238 14.8314 21.633 15.0377 14.3031 24.8963L42.0672 45.981C35.1063 55.3433 22.8617 55.4936 16.1638 48.8033L41.6501 21.9496ZM14.2999 24.9005C15.2253 23.6553 16.1304 23.0175 16.5473 22.7675C16.9539 22.5236 17.0187 22.57 16.5684 22.6867L23.3873 58.035C29.6021 56.4241 36.8943 52.9423 42.0703 45.9767L14.2999 24.9005ZM16.5684 22.6867C16.1521 22.7946 16.1627 22.7364 16.5456 22.7461C16.9309 22.756 17.8653 22.8423 19.0676 23.391L3.13988 56.8775C10.0805 60.0447 17.4702 59.5687 23.3873 58.035L16.5684 22.6867ZM19.0661 23.3903C20.4759 24.0335 21.7074 25.0752 22.5727 26.318C23.3794 27.4766 23.5857 28.3968 23.6185 28.5669L-11.2299 37.5996C-9.75418 45.2495 -5.42947 52.968 3.14135 56.8781L19.0661 23.3903ZM23.6185 28.5669C23.6724 28.8465 23.6945 29.3111 23.496 29.9424L-10.239 20.5451C-12.0158 26.1962 -12.2941 32.083 -11.2299 37.5996L23.6185 28.5669ZM23.4936 29.9502C25.7543 22.7705 24.4338 15.0677 20.0056 9.48019L-8.03501 33.4678C-10.8473 29.9192 -11.6747 25.1049 -10.2365 20.5373L23.4936 29.9502ZM19.9995 9.47247L17.5924 6.43886L-10.436 30.4419L-8.02889 33.4755L19.9995 9.47247ZM16.0199 30.7056L18.2797 28.2964L-6.60377 3.7661L-8.86354 6.17522L16.0199 30.7056ZM-8.17695 28.0319L-6.7002 29.8933L21.3296 5.89204L19.8529 4.03066L-8.17695 28.0319ZM-6.70216 29.8908C-0.591256 37.5963 11.5278 40.4619 21.4633 32.6962L1.00354 4.12161C8.42837 -1.68175 17.2511 0.749186 21.3316 5.89451L-6.70216 29.8908ZM21.4595 32.6991C20.6912 33.2993 19.7574 33.775 18.7573 34.0343L11.9384 -1.31404C7.97441 -0.286592 4.27247 1.56787 1.00731 4.11867L21.4595 32.6991ZM18.7573 34.0343C17.7585 34.2931 16.7392 34.3241 15.8226 34.1602L23.8253 -1.7957C19.9329 -2.49168 15.9018 -2.34135 11.9384 -1.31404L18.7573 34.0343ZM15.8195 34.1596C18.6049 34.6582 21.5186 34.5558 24.3796 33.8142L17.5607 -1.53405C19.6903 -2.08604 21.8295 -2.15296 23.8284 -1.79514L15.8195 34.1596ZM24.3796 33.8142C32.6713 31.6651 38.3221 24.9238 40.2693 17.7193L6.0902 9.84163C7.37613 5.08378 11.3195 0.0836346 17.5607 -1.53405L24.3796 33.8142ZM40.2694 17.7189L40.9216 15.3057L6.74223 7.42891L6.09007 9.84211L40.2694 17.7189ZM17.0818 28.6069L20.0116 29.6709L33.5117 -4.80834L30.582 -5.87235L17.0818 28.6069ZM9.672 8.49285L8.6091 12.4259L42.7884 20.3028L43.8513 16.3698L9.672 8.49285ZM8.61065 12.4201C6.64802 19.6735 8.29121 27.2938 12.9638 32.6686L40.0379 7.51673C43.0067 10.9316 44.0352 15.6949 42.7868 20.3085L8.61065 12.4201ZM12.97 32.6757C12.556 32.2 12.4047 31.7662 12.351 31.4875L47.1994 22.4548C46.1351 16.9379 43.72 11.7473 40.0318 7.50967L12.97 32.6757ZM12.351 31.4875C12.2993 31.2199 12.0381 29.4299 13.0943 26.9908L45.406 40.2074C48.1181 33.9448 48.2102 27.6946 47.1994 22.4548L12.351 31.4875ZM13.0898 27.0014C9.42959 35.4671 11.9506 45.6715 20.083 50.3984L38.8732 18.3922C46.5004 22.8254 48.8175 32.3169 45.4106 40.1968L13.0898 27.0014ZM20.0745 50.3934C29.8877 56.1051 41.9751 50.77 46.3194 40.7428L14.0104 27.52C15.9153 23.1232 19.5809 19.274 24.4897 17.3862C29.4423 15.4816 34.6949 15.9603 38.8817 18.3972L20.0745 50.3934ZM46.322 40.7368C49.113 34.2888 49.2779 27.7927 48.1982 22.1959L13.3498 31.2286C13.335 31.1516 13.0895 29.6476 14.0078 27.5261L46.322 40.7368ZM48.1982 22.1959C47.0907 16.4546 44.5779 11.0634 40.7533 6.66835L13.6898 31.8325C13.4169 31.5188 13.3613 31.2881 13.3498 31.2286L48.1982 22.1959ZM40.7572 6.67293C43.9894 10.3898 45.1315 15.6085 43.7631 20.6645L9.58754 12.7739C7.73459 19.6204 9.29562 26.7792 13.6858 31.8279L40.7572 6.67293ZM5.11321 9.48909C7.08819 2.17898 14.7026 -4.63071 23.9876 -2.967L15.9729 32.9867C27.2416 35.0059 36.7264 26.8641 39.2933 17.3632L5.11321 9.48909ZM23.9823 -2.96796C19.964 -3.68661 15.8048 -3.53169 11.7153 -2.47172L18.5343 32.8766C17.6592 33.1034 16.7674 33.1288 15.9782 32.9877L23.9823 -2.96796ZM11.7153 -2.47172C7.62554 -1.41165 3.80553 0.501824 0.434114 3.13618L20.8894 31.7142C20.2267 32.232 19.4099 32.6496 18.5343 32.8766L11.7153 -2.47172ZM0.433333 3.13679C8.21914 -2.94753 17.6098 -0.55085 22.0846 5.09087L-5.94785 29.0888C-0.13249 36.4207 11.4393 39.0991 20.8902 31.7136L0.433333 3.13679ZM22.0832 5.08906L20.2598 2.7909L-7.76974 26.7925L-5.94642 29.0906L22.0832 5.08906ZM20.2603 2.79149C23.1066 6.37939 24.0408 11.229 22.7857 15.8765L-11.3953 8.00593C-13.1949 14.6692 -11.8496 21.6496 -7.77021 26.7919L20.2603 2.79149ZM22.7861 15.8747C21.9372 19.0192 19.9346 22.5251 16.3724 25.0864L-2.85254 -4.41408C-7.42501 -1.12635 -10.1841 3.51952 -11.3958 8.0077L22.7861 15.8747ZM16.3735 25.0856C25.6296 18.4292 26.3494 7.05465 22.5975 0.0444785L-8.747 18.9941C-12.2008 12.5409 -11.6293 1.8976 -2.85363 -4.4133L16.3735 25.0856ZM22.5975 0.0444785C18.5148 -7.58364 7.19255 -13.0269 -3.38614 -5.42647L15.8271 24.0824C5.72911 31.3374 -4.96243 26.0652 -8.747 18.9941L22.5975 0.0444785ZM-3.38887 -5.42451C-8.15157 -2.00144 -11.081 2.86642 -12.3733 7.65665L21.8104 15.5171C21.0271 18.4207 19.1647 21.6836 15.8298 24.0805L-3.38887 -5.42451ZM-12.3712 7.64882C-14.0318 13.7942 -13.1624 20.1524 -10.1281 25.2625L20.473 4.9952C22.2819 8.04154 22.8069 11.8298 21.8083 15.5249L-12.3712 7.64882ZM-7.27046 2.86495L-9.54259 5.28768L15.3433 29.8155L17.6154 27.3928L-7.27046 2.86495ZM17.6314 6.52382C19.1621 8.76824 19.6384 11.6491 18.8782 14.4617L-15.3006 6.58273C-17.3877 14.3039 -16.0761 22.3547 -11.8307 28.5794L17.6314 6.52382ZM18.8784 14.4609C18.0217 17.6307 15.1482 21.6902 10.066 23.0075L3.24713 -12.3408C-6.5018 -9.81394 -13.0149 -1.87443 -15.3008 6.58358L18.8784 14.4609ZM10.066 23.0075L22.5705 19.7664L15.7515 -15.5819L3.24713 -12.3408L10.066 23.0075ZM22.5705 19.7664C17.4846 21.0846 13.3944 18.8267 11.4579 16.3862L39.4861 -7.61706C34.3121 -14.1376 25.5037 -18.1097 15.7515 -15.5819L22.5705 19.7664ZM11.4586 16.3871C9.73626 14.2169 9.10841 11.3741 9.66911 8.58647L44.4289 13.9982C45.9833 6.26996 44.2116 -1.66254 39.4854 -7.61794L11.4586 16.3871ZM33.799 -5.94736L30.853 -7.01724L17.3531 27.4621L20.299 28.532L33.799 -5.94736ZM41.6703 11.8339C42.5352 5.72453 40.9925 -0.446035 37.2463 -5.18253L9.18521 18.7792C6.93259 15.931 6.02021 12.2526 6.53573 8.61103L41.6703 11.8339ZM37.2481 -5.18036C32.7101 -10.92 24.8771 -14.3005 16.3735 -12.0964L23.1925 23.2519C17.2156 24.8011 12.013 22.3558 9.18349 18.777L37.2481 -5.18036ZM16.3735 -12.0964L4.91551 -9.12648L11.7344 26.2218L23.1925 23.2519L16.3735 -12.0964ZM4.91551 -9.12648C-7.09289 -6.01394 -10.9904 5.97813 -9.48686 13.7722L25.3616 4.73963C26.7417 11.8939 23.1914 23.2522 11.7344 26.2218L4.91551 -9.12648ZM-9.48686 13.7722C-7.98426 21.5615 -0.0544747 30.493 11.9577 27.3794L5.13882 -7.96888C16.5996 -10.9395 23.9822 -2.41063 25.3616 4.73963L-9.48686 13.7722ZM11.9577 27.3794L23.4156 24.4096L16.5967 -10.9387L5.13882 -7.96888L11.9577 27.3794ZM23.4156 24.4096C17.158 26.0315 11.5564 23.534 8.4293 19.5792L36.4927 -4.37966C32.1506 -9.87089 24.6678 -13.0307 16.5967 -10.9387L23.4156 24.4096ZM8.43284 19.5837C5.59403 15.9961 4.66349 11.1513 5.91895 6.50693L40.0976 14.3862C41.8968 7.73056 40.5573 0.757018 36.4892 -4.38413L8.43284 19.5837ZM5.91832 6.50926L5.11329 9.4888L39.2932 17.3634L40.0982 14.3839L5.91832 6.50926Z" fill="black" mask="url(#path-1-inside-1)"/>
</svg>
