<svg width="75" height="86" viewBox="0 0 75 86" fill="none" xmlns="http://www.w3.org/2000/svg">
<mask id="path-1-inside-1" fill="white">
<path d="M59.2731 32.7021L61.8745 24.3983C63.6407 18.7619 62.3079 12.8016 58.3095 8.45547C54.3113 4.10806 48.4829 2.28209 42.7196 3.57082L15.9687 9.55255C10.2044 10.8415 5.70849 14.9754 3.9439 20.6109C2.17795 26.2466 3.51085 32.2074 7.50912 36.5549L13.3992 42.9593C14.5717 44.2351 14.9279 46.0456 14.3303 47.6849C12.498 52.7117 12.1494 58.1391 13.3215 63.381C14.9345 70.5944 18.9169 75.4972 25.1586 77.9536C30.5099 80.0597 37.5173 80.2386 45.4227 78.4709C53.7716 76.604 60.252 73.2183 64.1619 68.6791C64.5565 68.2209 64.5051 67.5298 64.0472 67.1355C63.589 66.7407 62.8977 66.7924 62.5031 67.2503C58.9029 71.43 52.8316 74.5711 44.945 76.3346C37.4679 78.0066 30.9032 77.8622 25.9605 75.9164C20.4362 73.7422 16.9024 69.3638 15.4578 62.9033C14.3771 58.0706 14.6985 53.067 16.3867 48.4348C17.2665 46.0244 16.739 43.3589 15.0106 41.4775L9.86107 35.8787L14.6954 31.4325L17.8547 34.8678C20.0265 37.2303 23.5524 37.6314 26.2379 35.8205C28.9088 34.0205 31.8697 32.7483 35.04 32.0394C38.2112 31.3303 41.4327 31.2201 44.6158 31.7111C45.4572 31.841 46.2856 31.8083 47.0679 31.6333C49.2613 31.1429 51.0876 29.5362 51.7949 27.2785L53.1901 22.8247L59.4578 24.7884L57.1839 32.0472C56.4198 34.4831 57.0773 37.1195 58.8999 38.9281C62.4022 42.3996 64.8237 46.7891 65.9046 51.6229C66.9306 56.2112 66.5526 60.327 64.7815 63.8554C64.5106 64.3959 64.7288 65.0538 65.2691 65.3247C65.8097 65.5962 66.4673 65.3775 66.7384 64.8378C68.7416 60.8454 69.1804 56.2386 68.0415 51.1451C66.8691 45.902 64.2407 41.1399 60.4416 37.3736C59.2029 36.1447 58.7548 34.3544 59.2731 32.7021ZM49.7059 26.6245C49.0727 28.6462 47.0721 29.8754 44.9502 29.5474C41.4962 29.0144 38.0012 29.134 34.5629 29.9028C31.1248 30.6716 27.9125 32.0519 25.015 34.0051C23.234 35.2058 20.9009 34.9458 19.467 33.3862L15.5663 29.1447C14.2473 27.7104 13.8076 25.744 14.3899 23.884C14.778 22.644 15.5871 21.592 16.6678 20.9217C17.1817 20.6028 17.3403 19.928 17.0214 19.414C16.7026 18.9001 16.0279 18.7423 15.5137 19.061C13.9864 20.008 12.8451 21.489 12.3007 23.23C11.5925 25.491 11.9609 27.8626 13.2717 29.767L8.4109 34.2383C5.50719 30.5654 4.61371 25.7946 6.03297 21.2651C7.56171 16.3852 11.4548 12.8048 16.4467 11.6885L43.1976 5.7068C48.1889 4.59071 53.2357 6.17253 56.6988 9.93759C59.9119 13.4305 61.1355 18.1273 60.0725 22.6864L53.7702 20.7118C54.1438 18.4346 53.4696 16.1349 51.872 14.3923C50.0445 12.3983 47.2309 11.5354 44.5283 12.1397L20.0159 17.6209C19.426 17.7528 19.0546 18.3376 19.1867 18.928C19.3185 19.5177 19.9038 19.8892 20.4936 19.7573L45.0056 14.2762C46.9455 13.8425 48.9578 14.4536 50.2573 15.8715C51.5723 17.305 52.0097 19.2694 51.4281 21.1255L49.7059 26.6245Z"/>
</mask>
<path d="M59.2731 32.7021L76.4478 38.0901L76.45 38.0832L59.2731 32.7021ZM61.8745 24.3983L44.698 19.0159L44.6976 19.0172L61.8745 24.3983ZM58.3095 8.45547L45.0607 20.6403L45.0627 20.6424L58.3095 8.45547ZM3.9439 20.6109L21.1204 25.9931L21.1215 25.9896L3.9439 20.6109ZM7.50912 36.5549L20.758 24.3701L20.7579 24.3701L7.50912 36.5549ZM13.3992 42.9593L26.6525 30.7795L26.6481 30.7746L13.3992 42.9593ZM14.3303 47.6849L-2.58115 41.5204L-2.58117 41.5204L14.3303 47.6849ZM25.1586 77.9536L31.7508 61.2042L31.7503 61.204L25.1586 77.9536ZM64.1619 68.6791L50.5238 56.9316L50.5237 56.9318L64.1619 68.6791ZM64.0472 67.1355L52.297 80.7713L52.3015 80.7751L64.0472 67.1355ZM62.5031 67.2503L48.8681 55.4992L48.8648 55.503L62.5031 67.2503ZM25.9605 75.9164L32.5542 59.1675L32.5527 59.167L25.9605 75.9164ZM16.3867 48.4348L-0.522208 42.2632L-0.5251 42.2712L16.3867 48.4348ZM15.0106 41.4775L28.2663 29.3001L28.2589 29.2921L15.0106 41.4775ZM9.86107 35.8787L-2.32391 22.6301L-15.5729 34.8154L-3.38724 48.064L9.86107 35.8787ZM14.6954 31.4325L27.9446 19.2481L15.7597 5.99831L2.51044 18.1838L14.6954 31.4325ZM17.8547 34.8678L31.1062 22.686L31.1038 22.6834L17.8547 34.8678ZM26.2379 35.8205L16.1782 20.894L16.1746 20.8964L26.2379 35.8205ZM44.6158 31.7111L47.3629 13.9219L47.36 13.9215L44.6158 31.7111ZM51.7949 27.2785L68.9717 32.6598L68.9718 32.6593L51.7949 27.2785ZM53.1901 22.8247L58.5717 5.64805L41.3942 0.266192L36.0132 17.4439L53.1901 22.8247ZM59.4578 24.7884L76.6347 30.1693L82.0153 12.9932L64.8394 7.61176L59.4578 24.7884ZM57.1839 32.0472L74.3589 37.434L74.3608 37.4281L57.1839 32.0472ZM58.8999 38.9281L46.2211 51.7049L46.2284 51.7122L58.8999 38.9281ZM64.7815 63.8554L48.6945 55.7801L48.6893 55.7905L64.7815 63.8554ZM65.2691 65.3247L73.3462 49.2387L73.3373 49.2342L65.2691 65.3247ZM66.7384 64.8378L82.8238 72.916L82.8268 72.9101L66.7384 64.8378ZM60.4416 37.3736L47.7644 50.1521L47.7691 50.1567L60.4416 37.3736ZM49.7059 26.6245L32.5286 21.2447L32.5285 21.245L49.7059 26.6245ZM44.9502 29.5474L47.7 11.7586L47.695 11.7579L44.9502 29.5474ZM25.015 34.0051L14.9538 19.0795L14.9531 19.08L25.015 34.0051ZM19.467 33.3862L32.7177 21.2035L32.716 21.2016L19.467 33.3862ZM15.5663 29.1447L2.3167 41.3287L2.31726 41.3293L15.5663 29.1447ZM14.3899 23.884L31.5679 29.2616L31.5684 29.2598L14.3899 23.884ZM16.6678 20.9217L26.156 36.2179L26.157 36.2172L16.6678 20.9217ZM15.5137 19.061L6.03085 3.76147L6.02832 3.76304L15.5137 19.061ZM12.3007 23.23L29.4777 28.6105L29.4803 28.6024L12.3007 23.23ZM13.2717 29.767L25.4578 43.0146L36.9593 32.4347L28.099 19.5616L13.2717 29.767ZM8.4109 34.2383L-5.70944 45.4015L6.32066 60.6184L20.597 47.4859L8.4109 34.2383ZM6.03297 21.2651L23.2095 26.6471L23.2098 26.6462L6.03297 21.2651ZM56.6988 9.93759L43.4506 22.1231L43.4514 22.124L56.6988 9.93759ZM60.0725 22.6864L54.691 39.8631L73.1986 45.6615L77.6023 26.7735L60.0725 22.6864ZM53.7702 20.7118L36.0077 17.797L33.4774 33.2168L48.3887 37.8885L53.7702 20.7118ZM51.872 14.3923L38.602 26.5539L38.604 26.5562L51.872 14.3923ZM50.2573 15.8715L36.988 28.0338L36.9922 28.0385L50.2573 15.8715ZM51.4281 21.1255L34.2516 15.7433L34.2508 15.7457L51.4281 21.1255ZM76.45 38.0832L79.0513 29.7793L44.6976 19.0172L42.0963 27.3211L76.45 38.0832ZM79.0509 29.7807C82.7401 18.0077 79.9106 5.34942 71.5564 -3.73143L45.0627 20.6424C44.9398 20.5088 44.7708 20.2431 44.6875 19.871C44.6043 19.4989 44.6443 19.1875 44.698 19.0159L79.0509 29.7807ZM71.5583 -3.72932C63.2071 -12.8098 50.8311 -16.6875 38.7916 -13.9954L46.6475 21.137C46.4712 21.1764 46.1577 21.19 45.7948 21.0763C45.4319 20.9625 45.1825 20.7726 45.0607 20.6403L71.5583 -3.72932ZM38.7916 -13.9954L12.0407 -8.01364L19.8966 27.1187L46.6475 21.137L38.7916 -13.9954ZM12.0407 -8.01364C0.00323246 -5.32195 -9.54607 3.45533 -13.2337 15.2322L21.1215 25.9896C21.0669 26.1639 20.921 26.4433 20.6405 26.7012C20.3601 26.9591 20.0712 27.0797 19.8966 27.1187L12.0407 -8.01364ZM-13.2326 15.2286C-16.9217 27.0019 -14.0909 39.6592 -5.73969 48.7397L20.7579 24.3701C20.8797 24.5025 21.0481 24.7669 21.1311 25.138C21.2141 25.5092 21.1744 25.8206 21.1204 25.9931L-13.2326 15.2286ZM-5.73974 48.7396L0.150333 55.1441L26.6481 30.7746L20.758 24.3701L-5.73974 48.7396ZM0.145843 55.1392C-3.2767 51.415 -4.26393 46.1368 -2.58115 41.5204L31.2418 53.8495C34.1197 45.9543 32.42 37.0553 26.6525 30.7795L0.145843 55.1392ZM-2.58117 41.5204C-5.59691 49.7937 -6.16433 58.7241 -4.2447 67.3089L30.8877 59.453C30.4631 57.554 30.5929 55.6296 31.2418 53.8494L-2.58117 41.5204ZM-4.2447 67.3089C-1.48432 79.6536 6.13091 89.809 18.5668 94.7032L31.7503 61.204C31.6168 61.1515 31.5295 61.1082 31.4795 61.0812C31.4542 61.0676 31.4369 61.0572 31.4264 61.0506C31.4211 61.0473 31.4174 61.0449 31.415 61.0433C31.4126 61.0417 31.4115 61.0409 31.4114 61.0408C31.4114 61.0408 31.4123 61.0415 31.4141 61.0428C31.4158 61.0442 31.4182 61.0461 31.4212 61.0485C31.4274 61.0536 31.4348 61.0601 31.4428 61.0676C31.4602 61.084 31.4717 61.0973 31.4758 61.1023C31.5361 61.1765 31.1918 60.8132 30.8877 59.453L-4.2447 67.3089ZM18.5664 94.703C28.3744 98.5632 39.3159 98.2809 49.3507 96.0371L41.4948 60.9047C35.7187 62.1963 32.6453 61.5562 31.7508 61.2042L18.5664 94.703ZM49.3507 96.0371C59.9115 93.6756 70.4857 88.9181 77.8001 80.4264L50.5237 56.9318C50.0184 57.5184 47.6316 59.5324 41.4948 60.9047L49.3507 96.0371ZM77.7999 80.4266C84.6788 72.4406 83.7894 60.3821 75.7929 53.4959L52.3015 80.7751C45.2207 74.6775 44.4342 64.0013 50.5238 56.9316L77.7999 80.4266ZM75.7974 53.4998C67.8027 46.6106 55.7472 47.5173 48.8681 55.4992L76.138 79.0014C70.0483 86.0674 59.3754 86.8708 52.297 80.7713L75.7974 53.4998ZM48.8648 55.503C48.869 55.4982 48.7605 55.6248 48.4674 55.8472C48.1733 56.0705 47.7184 56.3709 47.06 56.7115C45.7201 57.4048 43.7391 58.1598 41.0171 58.7684L48.873 93.9008C58.854 91.669 69.0823 87.1929 76.1413 78.9976L48.8648 55.503ZM41.0171 58.7684C35.5678 59.9869 32.9715 59.3318 32.5542 59.1675L19.3669 92.6652C28.835 96.3926 39.3681 96.0262 48.873 93.9008L41.0171 58.7684ZM32.5527 59.167C32.4886 59.1417 32.5725 59.1677 32.7354 59.2854C32.9027 59.4063 33.0621 59.5582 33.1863 59.7122C33.3067 59.8614 33.3289 59.9314 33.2915 59.8499C33.2505 59.7606 33.1391 59.4902 33.0239 58.9753L-2.10844 66.8312C0.464093 78.3358 7.57524 88.0243 19.3684 92.6658L32.5527 59.167ZM33.0239 58.9753C32.6906 57.4845 32.7937 55.9836 33.2985 54.5985L-0.5251 42.2712C-3.39675 50.1504 -3.93633 58.6568 -2.10844 66.8312L33.0239 58.9753ZM33.2956 54.6064C36.4697 45.9102 34.5686 36.1605 28.2663 29.3001L1.75495 53.6548C-1.0905 50.5574 -1.93669 46.1386 -0.522206 42.2632L33.2956 54.6064ZM28.2589 29.2921L23.1094 23.6934L-3.38724 48.064L1.76232 53.6628L28.2589 29.2921ZM22.046 49.1273L26.8804 44.6811L2.51044 18.1838L-2.32391 22.6301L22.046 49.1273ZM1.44624 43.6169L4.60548 47.0522L31.1038 22.6834L27.9446 19.2481L1.44624 43.6169ZM4.60313 47.0496C12.8825 56.056 26.3375 57.4632 36.3012 50.7447L16.1746 20.8964C20.7673 17.7996 27.1705 18.4046 31.1062 22.686L4.60313 47.0496ZM36.2977 50.7471C37.092 50.2118 37.9705 49.8286 38.968 49.6056L31.1121 14.4732C25.7688 15.668 20.7255 17.8293 16.1782 20.894L36.2977 50.7471ZM38.968 49.6056C39.9671 49.3821 40.9259 49.3548 41.8717 49.5007L47.36 13.9215C41.9396 13.0854 36.4552 13.2784 31.1121 14.4732L38.968 49.6056ZM41.8687 49.5002C44.9365 49.974 48.0288 49.863 50.9959 49.1995L43.14 14.0671C44.5423 13.7535 45.9778 13.708 47.3629 13.9219L41.8687 49.5002ZM50.9959 49.1995C59.3173 47.3388 66.2969 41.1974 68.9717 32.6598L34.6181 21.8971C35.8782 17.875 39.2054 14.9469 43.14 14.0671L50.9959 49.1995ZM68.9718 32.6593L70.367 28.2056L36.0132 17.4439L34.618 21.8976L68.9718 32.6593ZM47.8085 40.0014L54.0761 41.9651L64.8394 7.61176L58.5717 5.64805L47.8085 40.0014ZM42.2809 19.4075L40.007 26.6662L74.3608 37.4281L76.6347 30.1693L42.2809 19.4075ZM40.0088 26.6603C37.2168 35.562 39.6581 45.1923 46.2211 51.7049L71.5787 26.1513C74.4966 29.0467 75.6228 33.4042 74.3589 37.434L40.0088 26.6603ZM46.2284 51.7122C47.2731 52.7478 48.0048 54.0588 48.3384 55.5509L83.4708 47.695C81.6427 39.5194 77.5313 32.0515 71.5714 26.1441L46.2284 51.7122ZM48.3384 55.5509C48.4995 56.2711 48.4615 56.5552 48.4674 56.4907C48.4703 56.4591 48.4822 56.3641 48.5219 56.2234C48.5618 56.0813 48.6199 55.9288 48.6945 55.7801L80.8685 71.9306C84.8417 64.0153 85.2227 55.5294 83.4708 47.695L48.3384 55.5509ZM48.6893 55.7905C43.9708 65.2055 47.7637 76.6832 57.2009 81.4152L73.3373 49.2342C81.6939 53.4244 85.0504 63.5862 80.8737 71.9202L48.6893 55.7905ZM57.1919 81.4107C66.6262 86.1479 78.0965 82.3291 82.8238 72.916L50.6529 56.7595C54.8382 48.4259 64.9932 45.0445 73.3462 49.2387L57.1919 81.4107ZM82.8268 72.9101C86.9949 64.603 87.4929 55.6482 85.6077 47.2171L50.4753 55.073C50.6852 56.0117 50.6657 56.5256 50.6492 56.6986C50.6356 56.8416 50.6205 56.8241 50.65 56.7654L82.8268 72.9101ZM85.6077 47.2171C83.6874 38.6295 79.3679 30.7902 73.1141 24.5906L47.7691 50.1567C49.1136 51.4896 50.0508 53.1746 50.4753 55.073L85.6077 47.2171ZM73.1188 24.5952C76.6077 28.0565 77.9641 33.2566 76.4478 38.0901L42.0984 27.3141C39.5454 35.4522 41.798 44.2329 47.7644 50.1521L73.1188 24.5952ZM32.5285 21.245C34.6114 14.5939 41.2106 10.7555 47.7 11.7586L42.2004 47.3361C52.9336 48.9952 63.534 42.6984 66.8832 32.0039L32.5285 21.245ZM47.695 11.7579C42.0044 10.8799 36.2463 11.0818 30.6349 12.3366L38.4908 47.469C39.756 47.1861 40.9881 47.149 42.2054 47.3369L47.695 11.7579ZM30.6349 12.3366C25.0234 13.5914 19.7281 15.8612 14.9538 19.0795L35.0762 48.9306C36.0968 48.2426 37.2262 47.7518 38.4908 47.469L30.6349 12.3366ZM14.9531 19.08C20.393 15.4126 27.9986 16.0707 32.7177 21.2035L6.21621 45.5688C13.8032 53.821 26.0749 54.999 35.077 48.9301L14.9531 19.08ZM32.716 21.2016L28.8153 16.9601L2.31726 41.3293L6.21794 45.5707L32.716 21.2016ZM28.8159 16.9608C31.85 20.2603 32.9056 24.9884 31.5679 29.2616L-2.78799 18.5063C-5.29036 26.4997 -3.35538 35.1605 2.3167 41.3287L28.8159 16.9608ZM31.5684 29.2598C30.6963 32.0468 28.8301 34.5591 26.156 36.2179L7.17947 5.62553C2.34408 8.62495 -1.14034 13.2412 -2.78857 18.5082L31.5684 29.2598ZM26.157 36.2172C35.1062 30.6652 37.8842 18.8985 32.317 9.92476L1.72589 28.9033C-3.20366 20.9575 -0.742756 10.5404 7.17847 5.62615L26.157 36.2172ZM32.317 9.92476C26.752 0.954771 14.9812 -1.78608 6.03085 3.76147L24.9966 34.3605C17.0747 39.2706 6.65311 36.8454 1.72589 28.9033L32.317 9.92476ZM6.02832 3.76304C0.766446 7.02563 -3.06621 12.0612 -4.87886 17.8576L29.4803 28.6024C28.7565 30.9169 27.2064 32.9903 24.9991 34.3589L6.02832 3.76304ZM-4.87632 17.8495C-7.23536 25.3806 -6.00964 33.5012 -1.55567 39.9724L28.099 19.5616C29.9314 22.2239 30.4203 25.6013 29.4777 28.6105L-4.87632 17.8495ZM1.08555 16.5194L-3.77524 20.9908L20.597 47.4859L25.4578 43.0146L1.08555 16.5194ZM22.5312 23.0752C22.8881 23.5265 23.1761 24.124 23.3025 24.8094C23.4292 25.4965 23.3689 26.1386 23.2095 26.6471L-11.1436 15.8831C-14.3401 26.0849 -12.3111 37.051 -5.70944 45.4015L22.5312 23.0752ZM23.2098 26.6462C23.0373 27.1969 22.6822 27.8027 22.1255 28.3146C21.5688 28.8266 20.9361 29.1292 20.3747 29.2547L12.5188 -5.87766C1.25212 -3.35834 -7.69226 4.86623 -11.1439 15.884L23.2098 26.6462ZM20.3747 29.2547L47.1255 23.273L39.2696 -11.8594L12.5188 -5.87766L20.3747 29.2547ZM47.1255 23.273C46.5627 23.3988 45.8604 23.3943 45.1385 23.1681C44.4167 22.9419 43.839 22.5454 43.4506 22.1231L69.947 -2.24787C62.1326 -10.7437 50.5392 -14.3794 39.2696 -11.8594L47.1255 23.273ZM43.4514 22.124C43.09 21.731 42.7616 21.1751 42.5834 20.499C42.4057 19.8246 42.4118 19.1606 42.5427 18.5992L77.6023 26.7735C80.0194 16.4064 77.1843 5.61955 69.9461 -2.24878L43.4514 22.124ZM65.454 5.50964L59.1517 3.5351L48.3887 37.8885L54.691 39.8631L65.454 5.50964ZM71.5326 23.6266C72.8021 15.8905 70.4631 8.03467 65.14 2.22845L38.604 26.5562C36.476 24.2351 35.4856 20.9787 36.0077 17.797L71.5326 23.6266ZM65.1421 2.23071C58.8341 -4.65221 49.4026 -7.39478 40.6003 -5.42649L48.4562 29.7059C45.0591 30.4655 41.2549 29.4487 38.602 26.5539L65.1421 2.23071ZM40.6003 -5.42649L16.0879 0.0546845L23.9439 35.1871L48.4562 29.7059L40.6003 -5.42649ZM16.0879 0.0546845C5.79866 2.35546 -0.681389 12.5619 1.62046 22.856L36.7528 15.0001C38.7906 24.1133 33.0534 33.1501 23.9439 35.1871L16.0879 0.0546845ZM1.62046 22.856C3.92121 33.1452 14.1281 39.6252 24.4216 37.3235L16.5657 2.19114C25.6794 0.153227 34.7158 5.89027 36.7528 15.0001L1.62046 22.856ZM24.4216 37.3235L48.9336 31.8424L41.0776 -3.28996L16.5657 2.19114L24.4216 37.3235ZM48.9336 31.8424C44.8482 32.756 40.2188 31.5587 36.988 28.0338L63.5267 3.70906C57.6968 -2.65149 49.0428 -5.07104 41.0776 -3.28996L48.9336 31.8424ZM36.9922 28.0385C33.9643 24.7373 32.9135 20.0136 34.2516 15.7433L68.6046 26.5076C71.1058 18.5253 69.1802 9.87284 63.5224 3.70442L36.9922 28.0385ZM34.2508 15.7457L32.5286 21.2447L66.8831 32.0042L68.6054 26.5052L34.2508 15.7457Z" fill="url(#paint0_linear)" mask="url(#path-1-inside-1)"/>
<defs>
<linearGradient id="paint0_linear" x1="29.3444" y1="6.56163" x2="45.4238" y2="78.4706" gradientUnits="userSpaceOnUse">
<stop stop-color="white"/>
<stop offset="1" stop-color="white"/>
</linearGradient>
</defs>
</svg>
