<svg width="167" height="86" viewBox="0 0 167 86" fill="none" xmlns="http://www.w3.org/2000/svg">
<mask id="path-1-inside-1" fill="white">
<path d="M151.273 32.7021L153.874 24.3983C155.641 18.7619 154.308 12.8016 150.31 8.45547C146.311 4.10806 140.483 2.28209 134.72 3.57082L107.969 9.55255C102.204 10.8415 97.7085 14.9754 95.9439 20.6109C94.178 26.2466 95.5108 32.2074 99.5091 36.5549L105.399 42.9593C106.572 44.2351 106.928 46.0456 106.33 47.6849C104.498 52.7117 104.149 58.1391 105.321 63.381C106.934 70.5944 110.917 75.4972 117.159 77.9536C122.51 80.0597 129.517 80.2386 137.423 78.4709C145.772 76.604 152.252 73.2183 156.162 68.6791C156.557 68.2209 156.505 67.5298 156.047 67.1355C155.589 66.7407 154.898 66.7924 154.503 67.2503C150.903 71.43 144.832 74.5711 136.945 76.3346C129.468 78.0066 122.903 77.8622 117.961 75.9164C112.436 73.7422 108.902 69.3638 107.458 62.9033C106.377 58.0706 106.698 53.067 108.387 48.4348C109.266 46.0244 108.739 43.3589 107.011 41.4775L101.861 35.8787L106.695 31.4325L109.855 34.8678C112.026 37.2303 115.552 37.6314 118.238 35.8205C120.909 34.0205 123.87 32.7483 127.04 32.0394C130.211 31.3303 133.433 31.2201 136.616 31.7111C137.457 31.841 138.286 31.8083 139.068 31.6333C141.261 31.1429 143.088 29.5362 143.795 27.2785L145.19 22.8247L151.458 24.7884L149.184 32.0472C148.42 34.4831 149.077 37.1195 150.9 38.9281C154.402 42.3996 156.824 46.7891 157.905 51.6229C158.931 56.2112 158.553 60.327 156.781 63.8554C156.511 64.3959 156.729 65.0538 157.269 65.3247C157.81 65.5962 158.467 65.3775 158.738 64.8378C160.742 60.8454 161.18 56.2386 160.041 51.1451C158.869 45.902 156.241 41.1399 152.442 37.3736C151.203 36.1447 150.755 34.3544 151.273 32.7021ZM141.706 26.6245C141.073 28.6462 139.072 29.8754 136.95 29.5474C133.496 29.0144 130.001 29.134 126.563 29.9028C123.125 30.6716 119.912 32.0519 117.015 34.0051C115.234 35.2058 112.901 34.9458 111.467 33.3862L107.566 29.1447C106.247 27.7104 105.808 25.744 106.39 23.884C106.778 22.644 107.587 21.592 108.668 20.9217C109.182 20.6028 109.34 19.928 109.021 19.414C108.703 18.9001 108.028 18.7423 107.514 19.061C105.986 20.008 104.845 21.489 104.301 23.23C103.592 25.491 103.961 27.8626 105.272 29.767L100.411 34.2383C97.5072 30.5654 96.6137 25.7946 98.033 21.2651C99.5617 16.3852 103.455 12.8048 108.447 11.6885L135.198 5.7068C140.189 4.59071 145.236 6.17253 148.699 9.93759C151.912 13.4305 153.135 18.1273 152.073 22.6864L145.77 20.7118C146.144 18.4346 145.47 16.1349 143.872 14.3923C142.045 12.3983 139.231 11.5354 136.528 12.1397L112.016 17.6209C111.426 17.7528 111.055 18.3376 111.187 18.928C111.319 19.5177 111.904 19.8892 112.494 19.7573L137.006 14.2762C138.945 13.8425 140.958 14.4536 142.257 15.8715C143.572 17.305 144.01 19.2694 143.428 21.1255L141.706 26.6245Z"/>
</mask>
<path d="M151.273 32.7021L168.448 38.0901L168.45 38.0832L151.273 32.7021ZM153.874 24.3983L136.698 19.0159L136.698 19.0172L153.874 24.3983ZM150.31 8.45547L137.061 20.6403L137.063 20.6424L150.31 8.45547ZM95.9439 20.6109L113.12 25.9931L113.121 25.9896L95.9439 20.6109ZM99.5091 36.5549L112.758 24.3701L112.758 24.3701L99.5091 36.5549ZM105.399 42.9593L118.653 30.7795L118.648 30.7746L105.399 42.9593ZM106.33 47.6849L89.4189 41.5204L89.4188 41.5204L106.33 47.6849ZM117.159 77.9536L123.751 61.2042L123.75 61.204L117.159 77.9536ZM156.162 68.6791L142.524 56.9316L142.524 56.9318L156.162 68.6791ZM156.047 67.1355L144.297 80.7713L144.301 80.7751L156.047 67.1355ZM154.503 67.2503L140.868 55.4992L140.865 55.503L154.503 67.2503ZM117.961 75.9164L124.554 59.1675L124.553 59.167L117.961 75.9164ZM108.387 48.4348L91.4778 42.2632L91.4749 42.2712L108.387 48.4348ZM107.011 41.4775L120.266 29.3001L120.259 29.2921L107.011 41.4775ZM101.861 35.8787L89.6761 22.6301L76.4271 34.8154L88.6128 48.064L101.861 35.8787ZM106.695 31.4325L119.945 19.2481L107.76 5.99831L94.5104 18.1838L106.695 31.4325ZM109.855 34.8678L123.106 22.686L123.104 22.6834L109.855 34.8678ZM118.238 35.8205L108.178 20.894L108.175 20.8964L118.238 35.8205ZM136.616 31.7111L139.363 13.9219L139.36 13.9215L136.616 31.7111ZM143.795 27.2785L160.972 32.6598L160.972 32.6593L143.795 27.2785ZM145.19 22.8247L150.572 5.64805L133.394 0.266192L128.013 17.4439L145.19 22.8247ZM151.458 24.7884L168.635 30.1693L174.015 12.9932L156.839 7.61176L151.458 24.7884ZM149.184 32.0472L166.359 37.434L166.361 37.4281L149.184 32.0472ZM150.9 38.9281L138.221 51.7049L138.228 51.7122L150.9 38.9281ZM156.781 63.8554L140.695 55.7801L140.689 55.7905L156.781 63.8554ZM157.269 65.3247L165.346 49.2387L165.337 49.2342L157.269 65.3247ZM158.738 64.8378L174.824 72.916L174.827 72.9101L158.738 64.8378ZM152.442 37.3736L139.764 50.1521L139.769 50.1567L152.442 37.3736ZM141.706 26.6245L124.529 21.2447L124.529 21.245L141.706 26.6245ZM136.95 29.5474L139.7 11.7586L139.695 11.7579L136.95 29.5474ZM117.015 34.0051L106.954 19.0795L106.953 19.08L117.015 34.0051ZM111.467 33.3862L124.718 21.2035L124.716 21.2016L111.467 33.3862ZM107.566 29.1447L94.3167 41.3287L94.3173 41.3293L107.566 29.1447ZM106.39 23.884L123.568 29.2616L123.568 29.2598L106.39 23.884ZM108.668 20.9217L118.156 36.2179L118.157 36.2172L108.668 20.9217ZM107.514 19.061L98.0309 3.76147L98.0283 3.76304L107.514 19.061ZM104.301 23.23L121.478 28.6105L121.48 28.6024L104.301 23.23ZM105.272 29.767L117.458 43.0146L128.959 32.4347L120.099 19.5616L105.272 29.767ZM100.411 34.2383L86.2906 45.4015L98.3207 60.6184L112.597 47.4859L100.411 34.2383ZM98.033 21.2651L115.21 26.6471L115.21 26.6462L98.033 21.2651ZM148.699 9.93759L135.451 22.1231L135.451 22.124L148.699 9.93759ZM152.073 22.6864L146.691 39.8631L165.199 45.6615L169.602 26.7735L152.073 22.6864ZM145.77 20.7118L128.008 17.797L125.477 33.2168L140.389 37.8885L145.77 20.7118ZM143.872 14.3923L130.602 26.5539L130.604 26.5562L143.872 14.3923ZM142.257 15.8715L128.988 28.0338L128.992 28.0385L142.257 15.8715ZM143.428 21.1255L126.252 15.7433L126.251 15.7457L143.428 21.1255ZM168.45 38.0832L171.051 29.7793L136.698 19.0172L134.096 27.3211L168.45 38.0832ZM171.051 29.7807C174.74 18.0077 171.911 5.34942 163.556 -3.73143L137.063 20.6424C136.94 20.5088 136.771 20.2431 136.688 19.871C136.604 19.4989 136.644 19.1875 136.698 19.0159L171.051 29.7807ZM163.558 -3.72932C155.207 -12.8098 142.831 -16.6875 130.792 -13.9954L138.648 21.137C138.471 21.1764 138.158 21.19 137.795 21.0763C137.432 20.9625 137.182 20.7726 137.061 20.6403L163.558 -3.72932ZM130.792 -13.9954L104.041 -8.01364L111.897 27.1187L138.648 21.137L130.792 -13.9954ZM104.041 -8.01364C92.0032 -5.32195 82.4539 3.45533 78.7663 15.2322L113.121 25.9896C113.067 26.1639 112.921 26.4433 112.64 26.7012C112.36 26.9591 112.071 27.0797 111.897 27.1187L104.041 -8.01364ZM78.7674 15.2286C75.0783 27.0019 77.9091 39.6592 86.2603 48.7397L112.758 24.3701C112.88 24.5025 113.048 24.7669 113.131 25.138C113.214 25.5092 113.174 25.8206 113.12 25.9931L78.7674 15.2286ZM86.2603 48.7396L92.1503 55.1441L118.648 30.7746L112.758 24.3701L86.2603 48.7396ZM92.1458 55.1392C88.7233 51.415 87.7361 46.1368 89.4189 41.5204L123.242 53.8495C126.12 45.9543 124.42 37.0553 118.653 30.7795L92.1458 55.1392ZM89.4188 41.5204C86.4031 49.7937 85.8357 58.7241 87.7553 67.3089L122.888 59.453C122.463 57.554 122.593 55.6296 123.242 53.8494L89.4188 41.5204ZM87.7553 67.3089C90.5157 79.6536 98.1309 89.809 110.567 94.7032L123.75 61.204C123.617 61.1515 123.53 61.1082 123.48 61.0812C123.454 61.0676 123.437 61.0572 123.426 61.0506C123.421 61.0473 123.417 61.0449 123.415 61.0433C123.413 61.0417 123.411 61.0409 123.411 61.0408C123.411 61.0408 123.412 61.0415 123.414 61.0428C123.416 61.0442 123.418 61.0461 123.421 61.0485C123.427 61.0536 123.435 61.0601 123.443 61.0676C123.46 61.084 123.472 61.0973 123.476 61.1023C123.536 61.1765 123.192 60.8132 122.888 59.453L87.7553 67.3089ZM110.566 94.703C120.374 98.5632 131.316 98.2809 141.351 96.0371L133.495 60.9047C127.719 62.1963 124.645 61.5562 123.751 61.2042L110.566 94.703ZM141.351 96.0371C151.912 93.6756 162.486 88.9181 169.8 80.4264L142.524 56.9318C142.018 57.5184 139.632 59.5324 133.495 60.9047L141.351 96.0371ZM169.8 80.4266C176.679 72.4406 175.789 60.3821 167.793 53.4959L144.301 80.7751C137.221 74.6775 136.434 64.0013 142.524 56.9316L169.8 80.4266ZM167.797 53.4998C159.803 46.6106 147.747 47.5173 140.868 55.4992L168.138 79.0014C162.048 86.0674 151.375 86.8708 144.297 80.7713L167.797 53.4998ZM140.865 55.503C140.869 55.4982 140.76 55.6248 140.467 55.8472C140.173 56.0705 139.718 56.3709 139.06 56.7115C137.72 57.4048 135.739 58.1598 133.017 58.7684L140.873 93.9008C150.854 91.669 161.082 87.1929 168.141 78.9976L140.865 55.503ZM133.017 58.7684C127.568 59.9869 124.971 59.3318 124.554 59.1675L111.367 92.6652C120.835 96.3926 131.368 96.0262 140.873 93.9008L133.017 58.7684ZM124.553 59.167C124.489 59.1417 124.573 59.1677 124.735 59.2854C124.903 59.4063 125.062 59.5582 125.186 59.7122C125.307 59.8614 125.329 59.9314 125.292 59.8499C125.251 59.7606 125.139 59.4902 125.024 58.9753L89.8916 66.8312C92.4641 78.3358 99.5752 88.0243 111.368 92.6658L124.553 59.167ZM125.024 58.9753C124.691 57.4845 124.794 55.9836 125.299 54.5985L91.4749 42.2712C88.6032 50.1504 88.0637 58.6568 89.8916 66.8312L125.024 58.9753ZM125.296 54.6064C128.47 45.9102 126.569 36.1605 120.266 29.3001L93.7549 53.6548C90.9095 50.5574 90.0633 46.1386 91.4778 42.2632L125.296 54.6064ZM120.259 29.2921L115.109 23.6934L88.6128 48.064L93.7623 53.6628L120.259 29.2921ZM114.046 49.1273L118.88 44.6811L94.5104 18.1838L89.6761 22.6301L114.046 49.1273ZM93.4462 43.6169L96.6055 47.0522L123.104 22.6834L119.945 19.2481L93.4462 43.6169ZM96.6031 47.0496C104.882 56.056 118.337 57.4632 128.301 50.7447L108.175 20.8964C112.767 17.7996 119.17 18.4046 123.106 22.686L96.6031 47.0496ZM128.298 50.7471C129.092 50.2118 129.97 49.8286 130.968 49.6056L123.112 14.4732C117.769 15.668 112.726 17.8293 108.178 20.894L128.298 50.7471ZM130.968 49.6056C131.967 49.3821 132.926 49.3548 133.872 49.5007L139.36 13.9215C133.94 13.0854 128.455 13.2784 123.112 14.4732L130.968 49.6056ZM133.869 49.5002C136.937 49.974 140.029 49.863 142.996 49.1995L135.14 14.0671C136.542 13.7535 137.978 13.708 139.363 13.9219L133.869 49.5002ZM142.996 49.1995C151.317 47.3388 158.297 41.1974 160.972 32.6598L126.618 21.8971C127.878 17.875 131.205 14.9469 135.14 14.0671L142.996 49.1995ZM160.972 32.6593L162.367 28.2056L128.013 17.4439L126.618 21.8976L160.972 32.6593ZM139.808 40.0014L146.076 41.9651L156.839 7.61176L150.572 5.64805L139.808 40.0014ZM134.281 19.4075L132.007 26.6662L166.361 37.4281L168.635 30.1693L134.281 19.4075ZM132.009 26.6603C129.217 35.562 131.658 45.1923 138.221 51.7049L163.579 26.1513C166.497 29.0467 167.623 33.4042 166.359 37.434L132.009 26.6603ZM138.228 51.7122C139.273 52.7478 140.005 54.0588 140.338 55.5509L175.471 47.695C173.643 39.5194 169.531 32.0515 163.571 26.1441L138.228 51.7122ZM140.338 55.5509C140.499 56.2711 140.461 56.5552 140.467 56.4907C140.47 56.4591 140.482 56.3641 140.522 56.2234C140.562 56.0813 140.62 55.9288 140.695 55.7801L172.868 71.9306C176.842 64.0153 177.223 55.5294 175.471 47.695L140.338 55.5509ZM140.689 55.7905C135.971 65.2055 139.764 76.6832 149.201 81.4152L165.337 49.2342C173.694 53.4244 177.05 63.5862 172.874 71.9202L140.689 55.7905ZM149.192 81.4107C158.626 86.1479 170.097 82.3291 174.824 72.916L142.653 56.7595C146.838 48.4259 156.993 45.0445 165.346 49.2387L149.192 81.4107ZM174.827 72.9101C178.995 64.603 179.493 55.6482 177.608 47.2171L142.475 55.073C142.685 56.0117 142.666 56.5256 142.649 56.6986C142.636 56.8416 142.621 56.8241 142.65 56.7654L174.827 72.9101ZM177.608 47.2171C175.687 38.6295 171.368 30.7902 165.114 24.5906L139.769 50.1567C141.114 51.4896 142.051 53.1746 142.475 55.073L177.608 47.2171ZM165.119 24.5952C168.608 28.0565 169.964 33.2566 168.448 38.0901L134.098 27.3141C131.545 35.4522 133.798 44.2329 139.764 50.1521L165.119 24.5952ZM124.529 21.245C126.611 14.5939 133.211 10.7555 139.7 11.7586L134.2 47.3361C144.934 48.9952 155.534 42.6984 158.883 32.0039L124.529 21.245ZM139.695 11.7579C134.004 10.8799 128.246 11.0818 122.635 12.3366L130.491 47.469C131.756 47.1861 132.988 47.149 134.205 47.3369L139.695 11.7579ZM122.635 12.3366C117.023 13.5914 111.728 15.8612 106.954 19.0795L127.076 48.9306C128.097 48.2426 129.226 47.7518 130.491 47.469L122.635 12.3366ZM106.953 19.08C112.393 15.4126 119.999 16.0707 124.718 21.2035L98.2162 45.5688C105.803 53.821 118.075 54.999 127.077 48.9301L106.953 19.08ZM124.716 21.2016L120.815 16.9601L94.3173 41.3293L98.2179 45.5707L124.716 21.2016ZM120.816 16.9608C123.85 20.2603 124.906 24.9884 123.568 29.2616L89.212 18.5063C86.7096 26.4997 88.6446 35.1605 94.3167 41.3287L120.816 16.9608ZM123.568 29.2598C122.696 32.0468 120.83 34.5591 118.156 36.2179L99.1795 5.62553C94.3441 8.62495 90.8597 13.2412 89.2114 18.5082L123.568 29.2598ZM118.157 36.2172C127.106 30.6652 129.884 18.8985 124.317 9.92476L93.7259 28.9033C88.7963 20.9575 91.2572 10.5404 99.1785 5.62615L118.157 36.2172ZM124.317 9.92476C118.752 0.954771 106.981 -1.78608 98.0309 3.76147L116.997 34.3605C109.075 39.2706 98.6531 36.8454 93.7259 28.9033L124.317 9.92476ZM98.0283 3.76304C92.7664 7.02563 88.9338 12.0612 87.1211 17.8576L121.48 28.6024C120.756 30.9169 119.206 32.9903 116.999 34.3589L98.0283 3.76304ZM87.1237 17.8495C84.7646 25.3806 85.9904 33.5012 90.4443 39.9724L120.099 19.5616C121.931 22.2239 122.42 25.6013 121.478 28.6105L87.1237 17.8495ZM93.0855 16.5194L88.2248 20.9908L112.597 47.4859L117.458 43.0146L93.0855 16.5194ZM114.531 23.0752C114.888 23.5265 115.176 24.124 115.302 24.8094C115.429 25.4965 115.369 26.1386 115.21 26.6471L80.8564 15.8831C77.6599 26.0849 79.6889 37.051 86.2906 45.4015L114.531 23.0752ZM115.21 26.6462C115.037 27.1969 114.682 27.8027 114.126 28.3146C113.569 28.8266 112.936 29.1292 112.375 29.2547L104.519 -5.87766C93.2521 -3.35834 84.3077 4.86623 80.8561 15.884L115.21 26.6462ZM112.375 29.2547L139.126 23.273L131.27 -11.8594L104.519 -5.87766L112.375 29.2547ZM139.126 23.273C138.563 23.3988 137.86 23.3943 137.139 23.1681C136.417 22.9419 135.839 22.5454 135.451 22.1231L161.947 -2.24787C154.133 -10.7437 142.539 -14.3794 131.27 -11.8594L139.126 23.273ZM135.451 22.124C135.09 21.731 134.762 21.1751 134.583 20.499C134.406 19.8246 134.412 19.1606 134.543 18.5992L169.602 26.7735C172.019 16.4064 169.184 5.61955 161.946 -2.24878L135.451 22.124ZM157.454 5.50964L151.152 3.5351L140.389 37.8885L146.691 39.8631L157.454 5.50964ZM163.533 23.6266C164.802 15.8905 162.463 8.03467 157.14 2.22845L130.604 26.5562C128.476 24.2351 127.486 20.9787 128.008 17.797L163.533 23.6266ZM157.142 2.23071C150.834 -4.65221 141.403 -7.39478 132.6 -5.42649L140.456 29.7059C137.059 30.4655 133.255 29.4487 130.602 26.5539L157.142 2.23071ZM132.6 -5.42649L108.088 0.0546845L115.944 35.1871L140.456 29.7059L132.6 -5.42649ZM108.088 0.0546845C97.7987 2.35546 91.3186 12.5619 93.6205 22.856L128.753 15.0001C130.791 24.1133 125.053 33.1501 115.944 35.1871L108.088 0.0546845ZM93.6205 22.856C95.9212 33.1452 106.128 39.6252 116.422 37.3235L108.566 2.19114C117.679 0.153227 126.716 5.89027 128.753 15.0001L93.6205 22.856ZM116.422 37.3235L140.934 31.8424L133.078 -3.28996L108.566 2.19114L116.422 37.3235ZM140.934 31.8424C136.848 32.756 132.219 31.5587 128.988 28.0338L155.527 3.70906C149.697 -2.65149 141.043 -5.07104 133.078 -3.28996L140.934 31.8424ZM128.992 28.0385C125.964 24.7373 124.914 20.0136 126.252 15.7433L160.605 26.5076C163.106 18.5253 161.18 9.87284 155.522 3.70442L128.992 28.0385ZM126.251 15.7457L124.529 21.2447L158.883 32.0042L160.605 26.5052L126.251 15.7457Z" fill="url(#paint0_linear)" mask="url(#path-1-inside-1)"/>
<path d="M29.196 65L15.372 49.376L27.324 35.3H19.116L8.928 47.432V35.3H2.16V65H8.928V52.4L19.872 65H29.196ZM36.5079 46.532H30.1359V56.864C30.1359 63.056 33.2319 65.54 40.1439 65.54C47.0559 65.54 50.1519 63.056 50.1519 56.864V46.532H43.7799V55.316C43.7799 58.952 42.8079 60.356 40.1439 60.356C37.4799 60.356 36.5079 58.952 36.5079 55.316V46.532ZM55.2009 46.532H52.5369V51.392H55.2009V65H61.5729V51.392H65.8209V46.532H61.5729V42.788C61.5729 40.232 61.9329 39.152 63.5529 39.152C64.5969 39.152 65.4609 39.656 65.4609 39.656L67.6929 35.156C67.6929 35.156 65.6769 33.5 62.4369 33.5C57.8289 33.5 55.2369 37.208 55.2009 42.608V46.532ZM73.6329 46.532H67.2609V56.864C67.2609 63.056 70.3569 65.54 77.2689 65.54C84.1809 65.54 87.2769 63.056 87.2769 56.864V46.532H80.9049V55.316C80.9049 58.952 79.9329 60.356 77.2689 60.356C74.6049 60.356 73.6329 58.952 73.6329 55.316V46.532ZM91.2459 65H97.6179V54.56C97.6179 52.724 99.4899 50.96 101.398 50.96C103.45 50.96 104.71 52.724 104.71 54.56V65H111.082V52.832C111.082 47.684 106.366 45.992 102.982 45.992C100.966 45.992 99.1299 47.036 97.6899 48.476H97.6179V46.532H91.2459V65ZM135.477 40.25H115.107V45.2H125.607L113.367 65H134.667V60.05H123.207L135.477 40.25ZM140.473 40.1C138.733 40.1 137.323 41.51 137.323 43.25C137.323 44.99 138.733 46.4 140.473 46.4C142.213 46.4 143.623 44.99 143.623 43.25C143.623 41.51 142.213 40.1 140.473 40.1ZM137.743 49.61H143.053V65H137.743V49.61Z" fill="white"/>
<defs>
<linearGradient id="paint0_linear" x1="121.344" y1="6.56163" x2="137.424" y2="78.4706" gradientUnits="userSpaceOnUse">
<stop stop-color="white"/>
<stop offset="1" stop-color="white"/>
</linearGradient>
</defs>
</svg>
